PathFileType	4	(X/Y/Z)	C:/Users/beibeiliu/ov580/test_trc/User2\sequence.32_training_dense_right.trc
DataRate	CameraRate	NumFrames	NumMarkers	Units	OrigDataRate	OrigDataStartFrame	OrigNumFrames
120	120	8	19	mm	120	83	330
Frame#	Time	ThumbCMC			ThumbMCP			ThumbIP			ThumbTip			IndexMCP			IndexPIP			IndexTip			MiddleMCP			MiddlePIP			MiddleTip			RingMCP			RingPIP			RingTip			PinkyMCP			PinkyPIP			PinkyTip			BackHand1			BackHand2			BackHand3	
		X0	Y0	Z0	X1	Y1	Z1	X2	Y2	Z2	X3	Y3	Z3	X4	Y4	Z4	X5	Y5	Z5	X6	Y6	Z6	X7	Y7	Z7	X8	Y8	Z8	X9	Y9	Z9	X10	Y10	Z10	X11	Y11	Z11	X12	Y12	Z12	X13	Y13	Z13	X14	Y14	Z14	X15	Y15	Z15	X16	Y16	Z16	X17	Y17	Z17	X18	Y18	Z18	
82	0.683333	105.218	49.6752	67.1364	84.2732	76.88	73.5735	56.4965	98.0299	74.2971	30.1002	103.368	75.9783	44.5708	39.9261	5.34151	21.9921	54.7483	-6.33418	-2.81562	71.0489	2.47219	25.81	20.1976	12.9443	-4.03796	35.7668	7.03211	-31.9883	60.3158	27.8226	8.55437	20.1706	45.2925	2.11846	43.2739	66.7314	27.3149	46.2078	87.4692	12.3635	7.7745	68.6887	16.9497	32.5086	93.0884	48.1796	32.2519	96.1888	62.9025	-15.5668	51.2302	92.1247	-25.5518	66.6053	94.5637	7.32524	46.1968	
83	0.691667	105.999	46.9245	68.9993	85.9958	80.23	74.7606	61.4364	101.343	76.9776	32.7084	107.369	78.1192	47.6889	41.4825	7.85708	22.0362	60.9173	-6.17218	-2.07127	80.6899	3.72308	25.9885	21.3482	14.9673	-5.29976	38.5688	10.6112	-28.5134	62.4895	28.4497	12.9741	22.3156	45.6699	0.261864	42.4933	66.7314	31.8202	50.6587	88.0177	11.0759	13.7436	71.2491	19.8389	37.3077	92.2315	48.9351	35.264	96.5903	63.6821	-15.6828	52.9422	93.1389	-26.7839	71.8822	96.3387	6.88957	45.9519	
84	0.7	106.876	48.1043	69.3347	86.756	77.8672	75.1179	61.6488	104.673	77.9027	36.2978	107.24	81.1685	49.9836	47.6651	5.90353	21.5405	61.6103	-3.2192	-2.0279	81.6263	6.75587	27.913	26.1877	16.0774	-7.7188	44.0489	11.5231	-30.0753	65.3403	32.4027	10.3997	27.4789	46.3121	-0.202361	44.3881	71.43	31.5575	52.6918	87.862	13.269	10.646	70.9153	16.0401	36.6384	95.146	48.1254	36.7982	95.5958	64.5437	-9.23526	50.435	91.3845	-23.8321	68.9171	94.3069	8.26457	47.1332	
85	0.708333	105.936	49.3924	68.3026	89.4456	80.3163	76.4159	62.6071	102.536	79.3402	37.459	111.972	82.6811	49.9767	47.6625	9.08161	23.3648	63.6761	-3.92445	-2.21286	83.9219	7.35758	25.273	29.9955	12.7621	-5.58757	42.5886	11.7305	-29.0036	69.4133	32.8914	8.43691	26.0318	49.8065	1.65549	48.2415	68.3634	31.3077	50.9088	92.4383	11.5069	16.0677	71.9814	16.8259	38.3618	93.9215	51.2965	35.2883	93.7996	66.4507	-9.32295	52.6878	93.384	-22.8141	71.8069	97.672	7.49748	49.2817	
86	0.716667	106.92	51.3006	67.6219	92.2176	82.0326	77.594	64.1309	107.642	79.0379	38.7864	114.021	83.6061	48.1326	48.8603	6.30804	24.807	63.1303	-2.89602	-4.70113	83.5518	9.61408	25.9119	27.3114	13.9868	-7.59534	44.6655	11.6399	-27.397	70.4931	33.305	7.43091	27.6047	49.3663	3.409	50.4941	70.1428	34.3755	54.2624	89.3256	12.8683	15.6752	71.0792	19.1049	40.5485	91.9285	49.9387	37.6117	95.3912	63.7759	-8.68486	52.0798	92.7624	-24.2009	67.9824	96.0007	9.60976	45.0318	
87	0.725	108.493	49.0654	69.3683	88	81.4087	75.2327	63.1955	107.321	79.5633	34.3215	111.115	81.4952	47.6541	46.7086	6.80617	24.6388	62.612	-3.47774	0.661841	84.2379	5.35393	25.1026	28.2789	11.9156	-4.47723	45.7588	9.96432	-27.7243	65.2247	31.3007	9.24625	26.758	47.1396	1.50666	46.7257	71.0239	30.3226	53.2788	89.975	11.7674	13.2514	72.4506	19.2977	37.6758	92.1524	52.1869	33.0962	97.4229	65.5635	-12.5699	51.9438	91.6207	-21.8321	68.3893	98.1459	9.03036	48.2704	
88	0.733333	109.373	48.1923	70.2846	90.3876	82.1391	77.1244	63.5509	102.282	80.1165	34.4632	105.203	82.1436	48.5288	44.8792	7.85715	20.9603	61.6407	-4.32664	-1.5966	83.5807	7.13471	24.5111	23.6295	12.8486	-4.79298	40.2379	9.65106	-27.9173	65.1802	29.1172	10.6699	27.6338	45.7632	2.84916	47.0418	69.6296	31.6434	49.5679	93.1767	13.9599	12.3315	69.1177	20.1202	36.2813	94.1118	54.5219	32.6315	96.5819	64.666	-8.86268	49.9184	92.8991	-20.9508	65.9661	98.6289	9.79839	45.7918	
89	0.741667	105.053	49.5954	67.4525	88.6104	79.4758	77.3878	60.849	103.579	79.6176	34.9832	103.922	83.2409	50.0941	45.1966	7.014	27.061	61.6386	-5.85345	-4.04093	77.7276	5.83216	27.5565	22.6361	13.3232	-5.15277	41.2948	8.04552	-27.0011	64.3473	29.0005	10.8726	24.9521	44.8675	1.08666	41.6518	67.7512	29.4597	51.0818	88.7684	12.7812	9.78938	70.9796	18.1983	34.4774	90.4601	49.8865	34.4549	98.3618	67.0108	-13.8826	52.1768	92.3631	-24.1862	68.0439	98.7726	10.7186	43.2109	
